<svg xmlns="http://www.w3.org/2000/svg" fill="none" viewBox="0 0 410 404">
  <path fill="url(#a)" d="m399.64 59.52-184 329.02a10 10 0 0 1-17.41.08L10.58 59.56a10 10 0 0 1 10.45-14.8l184.2 32.92a10 10 0 0 0 3.55 0L389.12 44.8a10 10 0 0 1 10.52 14.71Z"/>
  <path fill="url(#b)" d="M292.96 1.57 156.8 28.26a5 5 0 0 0-4.03 4.6l-8.38 141.47a5 5 0 0 0 6.12 5.17l37.91-8.75a5 5 0 0 1 6.02 5.87l-11.26 55.16a5 5 0 0 0 6.35 5.78l23.42-7.11a5 5 0 0 1 6.35 5.8l-17.9 86.63c-1.12 5.41 6.09 8.37 9.1 3.72l2-3.1 110.95-221.43a5 5 0 0 0-5.41-7.15L279 102.45a5 5 0 0 1-5.75-6.3l25.47-88.28a5 5 0 0 0-5.77-6.3Z"/>
  <defs>
    <linearGradient id="a" x1="6" x2="235" y1="33" y2="344" gradientUnits="userSpaceOnUse">
      <stop stop-color="#41D1FF"/>
      <stop offset="1" stop-color="#BD34FE"/>
    </linearGradient>
    <linearGradient id="b" x1="194.65" x2="236.08" y1="8.82" y2="292.99" gradientUnits="userSpaceOnUse">
      <stop stop-color="#FFEA83"/>
      <stop offset=".08" stop-color="#FFDD35"/>
      <stop offset="1" stop-color="#FFA800"/>
    </linearGradient>
  </defs>
</svg>